<svg xmlns="http://www.w3.org/2000/svg" viewBox="0 0 1024 1024" role="img" aria-labelledby="title desc">
  <title id="title">PackRat icon</title>
  <desc id="desc">A rounded two-tone rat and package mascot using warm tan fill and cocoa linework on a transparent background.</desc>

  <g fill="#F6C98D" stroke="#F6C98D" stroke-width="12" stroke-linejoin="round" stroke-linecap="round">
    <path d="
M837.823486,721.500000 
	C837.823120,615.169373 837.824158,508.838745 837.814819,402.508118 
	C837.814575,399.509155 837.890076,396.492615 837.609741,393.514435 
	C836.650391,383.321411 831.905273,378.645691 822.668030,378.629486 
	C778.520325,378.552063 734.372681,378.472961 690.224976,378.419525 
	C657.225525,378.379578 624.226013,378.380554 591.226562,378.356995 
	C584.048706,378.351868 584.044983,378.339478 584.047791,385.508240 
	C584.059204,414.507782 584.079895,443.507294 584.074097,472.506836 
	C584.073608,475.001892 584.098755,477.523102 583.767151,479.985687 
	C583.293823,483.500336 581.561768,486.240265 578.004333,487.483307 
	C574.677429,488.645813 572.214905,487.110382 569.943298,484.932587 
	C562.606018,477.898285 555.177429,470.956207 547.965210,463.796082 
	C545.085510,460.937225 542.876343,460.862579 540.015503,463.798706 
	C533.387024,470.601440 526.548035,477.198944 519.794006,483.879303 
	C514.260498,489.352417 511.924500,489.396393 506.496307,484.071444 
	C500.071930,477.769196 493.668976,471.445129 487.253082,465.134216 
	C482.271027,460.233673 482.263672,460.230957 477.320801,464.865997 
	C470.027954,471.704559 462.817261,478.632996 455.428070,485.365723 
	C450.594238,489.770142 444.404572,487.840088 442.562164,481.581573 
	C441.793823,478.971436 441.944946,476.298462 441.942596,473.637634 
	C441.916412,443.971344 441.825409,414.304718 441.963776,384.639160 
	C441.985199,380.044220 440.869507,378.241852 435.854462,378.251892 
	C359.189117,378.405487 282.523346,378.363373 205.857697,378.384583 
	C193.837250,378.387909 189.526535,382.450134 188.191559,394.474548 
	C186.531418,409.427765 187.536026,424.425842 187.513885,439.386505 
	C187.317947,571.718140 187.394409,704.050171 187.384308,836.382080 
	C187.383987,840.713318 187.606110,845.006287 188.123184,849.327698 
	C191.481705,877.396851 212.951569,896.732422 241.389709,896.738647 
	C422.721222,896.778381 604.052734,896.753967 785.384216,896.731140 
	C787.875061,896.730835 790.393616,896.669617 792.852600,896.314209 
	C822.291504,892.057739 838.374146,866.394226 838.019531,842.496033 
	C837.426208,802.505249 837.836487,762.499451 837.823486,721.500000 
z"/>
    <path d="
M131.668930,354.826416 
	C141.123215,365.219543 151.695847,374.133667 164.314484,380.172485 
	C166.037491,378.847839 166.213776,377.282166 166.656906,375.901276 
	C172.486221,357.735138 183.138107,342.878662 198.097153,331.244141 
	C226.099197,309.465302 254.223007,287.840698 282.458679,266.365601 
	C294.088043,257.520721 307.426910,252.332642 321.965302,250.814423 
	C336.151489,249.332993 336.133698,249.578110 333.693115,235.577545 
	C324.765198,184.361633 281.173431,146.962982 229.016907,144.548569 
	C186.412735,142.576340 151.311020,159.360168 125.077324,193.009399 
	C105.455246,218.178101 97.119789,247.419769 99.569450,279.157837 
	C101.756561,307.494263 112.555992,332.659546 131.668930,354.826416 
z"/>
    <path d="
M782.056213,295.426361 
	C796.129700,306.366058 810.127380,317.405151 824.296570,328.219452 
	C840.759827,340.784637 853.252625,356.164978 859.183655,376.308411 
	C860.247681,379.922272 862.040649,380.312744 865.054260,378.520172 
	C870.651733,375.190613 876.131409,371.689240 880.958923,367.301941 
	C918.180115,333.474854 932.901062,291.257996 923.187805,242.334137 
	C911.982483,185.894440 866.214966,147.962692 810.826965,144.448120 
	C780.179504,142.503418 752.481262,151.406067 728.874695,171.395157 
	C706.741028,190.137070 694.775696,214.399200 691.345337,243.055359 
	C690.796204,247.642731 691.732788,249.735596 697.192993,250.073639 
	C715.183594,251.187439 731.772888,256.811951 746.259216,267.831543 
	C758.060303,276.808502 769.753967,285.926727 782.056213,295.426361 
z"/>
    <path d="
M242.771378,329.296722 
	C232.824463,337.049011 222.877548,344.801300 212.930634,352.553589 
	C213.048370,352.934540 213.166122,353.315460 213.283859,353.696411 
	C215.892441,353.696411 218.501022,353.696411 221.109604,353.696411 
	C292.438812,353.695923 363.768036,353.695465 435.097229,353.694031 
	C436.263794,353.694000 437.434296,353.617035 438.596130,353.687866 
	C441.210480,353.847351 442.653381,352.794189 442.908173,350.066895 
	C443.263794,346.260376 443.786926,342.469757 444.222473,338.670502 
	C446.382324,319.829956 448.470917,300.980835 450.740356,282.153503 
	C451.299774,277.512665 449.703186,276.090851 445.041626,276.110901 
	C407.711182,276.271698 370.379211,276.100616 333.048889,276.274567 
	C319.709991,276.336731 307.324371,280.344513 296.615997,288.287567 
	C278.687347,301.586304 261.083649,315.323120 242.771378,329.296722 
z"/>
    <path d="
M592.581421,353.694397 
	C665.558472,353.694397 738.535522,353.694397 811.659973,353.694397 
	C811.389038,350.971405 810.146362,350.560364 809.270813,349.883484 
	C784.770264,330.942749 760.202026,312.089081 735.762024,293.070740 
	C723.260498,283.342560 709.855103,276.177094 693.501221,276.184357 
	C656.028625,276.200958 618.555969,276.173828 581.083374,276.189850 
	C575.298096,276.192322 574.941345,276.644867 575.359009,282.592346 
	C575.428772,283.585876 575.623352,284.569977 575.733154,285.561432 
	C577.910217,305.224060 580.246399,324.871094 582.184509,344.557281 
	C583.079346,353.646545 582.725952,353.681335 592.581421,353.694397 
z"/>
  </g>

  <g fill="#8A5729">
    <path d="
M161.650635,651.999878 
	C161.639847,578.004944 161.570633,504.509857 161.740280,431.015320 
	C161.752289,425.818207 160.050537,423.633759 155.334091,421.562286 
	C113.744164,403.296051 85.113152,372.396240 68.140877,330.513519 
	C29.774868,235.837219 86.849815,126.587563 188.234146,104.074982 
	C237.118942,93.220024 282.226105,102.263054 321.220459,134.295029 
	C354.366577,161.522903 371.935638,197.493271 375.403870,240.284363 
	C375.444214,240.782166 375.421326,241.285080 375.462067,241.782822 
	C376.121674,249.838425 376.122894,249.839157 384.264343,249.839233 
	C469.591827,249.839905 554.919312,249.868088 640.246826,249.806625 
	C651.250549,249.798691 649.744934,251.117859 650.485229,240.175537 
	C655.104675,171.896133 706.118896,114.547203 773.641846,102.669090 
	C829.244812,92.887848 878.137451,107.119171 919.074158,146.033356 
	C941.309570,167.170242 955.365356,193.597809 962.755005,223.371490 
	C974.497009,270.681244 968.715454,315.668610 943.275574,357.495667 
	C925.308655,387.036011 900.745117,409.449921 868.363403,422.536285 
	C864.219238,424.211090 864.216980,427.013367 864.218384,430.450104 
	C864.249878,506.111603 864.246887,581.773071 864.247498,657.434570 
	C864.247620,670.600342 864.212341,683.766113 864.251648,696.931763 
	C864.257507,698.889343 863.848450,700.927002 865.163025,703.484253 
	C871.402222,702.083984 877.787415,700.604370 884.193481,699.221191 
	C913.410034,692.913269 942.921936,689.242126 972.855530,689.852356 
	C980.329102,690.004639 987.804565,690.811584 995.244690,691.630615 
	C1001.868835,692.359924 1006.202087,697.520081 1005.992554,703.838562 
	C1005.776184,710.364441 1000.744812,715.600098 993.884827,715.204529 
	C980.736023,714.446228 967.586792,713.723877 954.438538,714.378235 
	C925.414307,715.822632 896.901062,720.634033 868.788208,727.964111 
	C865.172852,728.906799 863.999756,730.766968 864.156616,734.337891 
	C864.390320,739.660706 864.510864,745.020935 864.144775,750.328369 
	C863.799622,755.330994 866.038025,756.641052 870.584717,756.710999 
	C894.792419,757.083435 918.717346,760.262329 942.464844,764.725342 
	C960.320251,768.080994 977.883301,772.665405 995.029968,778.747131 
	C998.040039,779.814697 1000.964905,780.982361 1002.945312,783.694275 
	C1006.071350,787.975037 1006.109680,793.837952 1003.022095,798.197205 
	C1000.203186,802.177002 994.867249,803.965759 989.664734,802.239380 
	C970.986206,796.041382 951.968323,791.187012 932.590759,787.808716 
	C912.076416,784.232239 891.426758,781.757263 870.588257,781.162109 
	C864.286011,780.982178 864.215393,781.121033 864.212036,787.522034 
	C864.202026,806.687378 864.301208,825.853271 864.190735,845.017944 
	C863.962463,884.641418 836.492798,916.696655 797.334167,922.888489 
	C791.770996,923.768188 786.040344,923.832886 780.385864,923.850281 
	C749.232178,923.946228 718.078064,923.919861 686.924133,923.917664 
	C624.761841,923.913330 562.599426,923.936279 500.437195,923.866272 
	C477.284119,923.840210 454.127747,923.252930 430.979065,923.499695 
	C370.655060,924.142822 310.331085,923.716431 250.007538,923.891418 
	C232.637115,923.941833 215.677460,922.088928 200.378326,913.002197 
	C175.502045,898.227173 162.239868,876.385925 161.721313,847.342896 
	C161.367325,827.517273 161.654907,807.680115 161.650711,787.848145 
	C161.649200,780.738159 161.644745,780.795471 154.367798,781.068970 
	C119.604614,782.375488 85.487000,787.777649 52.010406,797.208008 
	C46.725044,798.696838 41.559494,800.608215 36.283390,802.133423 
	C29.314266,804.148071 22.934990,800.998169 20.974646,794.764221 
	C18.949158,788.323120 21.969696,782.126404 28.767248,779.549744 
	C46.416000,772.859863 64.675827,768.315186 83.186638,764.840271 
	C107.590530,760.259216 132.175461,757.075134 157.047852,756.689697 
	C160.449326,756.636963 161.811401,755.423645 161.702698,751.947327 
	C161.510056,745.787109 161.547165,739.614258 161.689240,733.451294 
	C161.756790,730.520569 160.882660,728.961487 157.811996,728.151855 
	C133.292664,721.686707 108.463295,717.138306 83.160828,715.134094 
	C66.842834,713.841614 50.559635,713.765869 34.257992,715.236389 
	C28.494453,715.756226 23.671011,714.148071 20.980101,708.508850 
	C17.572842,701.368530 21.885578,692.834778 29.736252,691.716675 
	C49.300076,688.930603 68.925133,689.378357 88.546715,691.101746 
	C111.974449,693.159302 135.079453,697.106934 157.799774,703.202087 
	C162.137146,704.365662 161.623474,701.464294 161.627945,698.983887 
	C161.655853,683.489258 161.646820,667.994568 161.650635,651.999878 
M837.823486,721.500000 
	C837.823120,615.169373 837.824158,508.838745 837.814819,402.508118 
	C837.814575,399.509155 837.890076,396.492615 837.609741,393.514435 
	C836.650391,383.321411 831.905273,378.645691 822.668030,378.629486 
	C778.520325,378.552063 734.372681,378.472961 690.224976,378.419525 
	C657.225525,378.379578 624.226013,378.380554 591.226562,378.356995 
	C584.048706,378.351868 584.044983,378.339478 584.047791,385.508240 
	C584.059204,414.507782 584.079895,443.507294 584.074097,472.506836 
	C584.073608,475.001892 584.098755,477.523102 583.767151,479.985687 
	C583.293823,483.500336 581.561768,486.240265 578.004333,487.483307 
	C574.677429,488.645813 572.214905,487.110382 569.943298,484.932587 
	C562.606018,477.898285 555.177429,470.956207 547.965210,463.796082 
	C545.085510,460.937225 542.876343,460.862579 540.015503,463.798706 
	C533.387024,470.601440 526.548035,477.198944 519.794006,483.879303 
	C514.260498,489.352417 511.924500,489.396393 506.496307,484.071442 
	C500.071930,477.769196 493.668976,471.445129 487.253082,465.134216 
	C482.271027,460.233673 482.263672,460.230957 477.320801,464.865997 
	C470.027954,471.704559 462.817261,478.632996 455.428070,485.365723 
	C450.594238,489.770142 444.404572,487.840088 442.562164,481.581573 
	C441.793823,478.971436 441.944946,476.298462 441.942596,473.637634 
	C441.916412,443.971344 441.825409,414.304718 441.963776,384.639160 
	C441.985199,380.044220 440.869507,378.241852 435.854462,378.251892 
	C359.189117,378.405487 282.523346,378.363373 205.857697,378.384583 
	C193.837250,378.387909 189.526535,382.450134 188.191559,394.474548 
	C186.531418,409.427765 187.536026,424.425842 187.513885,439.386505 
	C187.317947,571.718140 187.394409,704.050171 187.384308,836.382080 
	C187.383987,840.713318 187.606110,845.006287 188.123184,849.327698 
	C191.481705,877.396851 212.951569,896.732422 241.389709,896.738647 
	C422.721222,896.778381 604.052734,896.753967 785.384216,896.731140 
	C787.875061,896.730835 790.393616,896.669617 792.852600,896.314209 
	C822.291504,892.057739 838.374146,866.394226 838.019531,842.496033 
	C837.426208,802.505249 837.836487,762.499451 837.823486,721.500000 
M131.668930,354.826416 
	C141.123215,365.219543 151.695847,374.133667 164.314484,380.172485 
	C166.037491,378.847839 166.213776,377.282166 166.656906,375.901276 
	C172.486221,357.735138 183.138107,342.878662 198.097153,331.244141 
	C226.099197,309.465302 254.223007,287.840698 282.458679,266.365601 
	C294.088043,257.520721 307.426910,252.332642 321.965302,250.814423 
	C336.151489,249.332993 336.133698,249.578110 333.693115,235.577545 
	C324.765198,184.361633 281.173431,146.962982 229.016907,144.548569 
	C186.412735,142.576340 151.311020,159.360168 125.077324,193.009399 
	C105.455246,218.178101 97.119789,247.419769 99.569450,279.157837 
	C101.756561,307.494263 112.555992,332.659546 131.668930,354.826416 
M782.056213,295.426361 
	C796.129700,306.366058 810.127380,317.405151 824.296570,328.219452 
	C840.759827,340.784637 853.252625,356.164978 859.183655,376.308411 
	C860.247681,379.922272 862.040649,380.312744 865.054260,378.520172 
	C870.651733,375.190613 876.131409,371.689240 880.958923,367.301941 
	C918.180115,333.474854 932.901062,291.257996 923.187805,242.334137 
	C911.982483,185.894440 866.214966,147.962692 810.826965,144.448120 
	C780.179504,142.503418 752.481262,151.406067 728.874695,171.395157 
	C706.741028,190.137070 694.775696,214.399200 691.345337,243.055359 
	C690.796204,247.642731 691.732788,249.735596 697.192993,250.073639 
	C715.183594,251.187439 731.772888,256.811951 746.259216,267.831543 
	C758.060303,276.808502 769.753967,285.926727 782.056213,295.426361 
M242.771378,329.296722 
	C232.824463,337.049011 222.877548,344.801300 212.930634,352.553589 
	C213.048370,352.934540 213.166122,353.315460 213.283859,353.696411 
	C215.892441,353.696411 218.501022,353.696411 221.109604,353.696411 
	C292.438812,353.695923 363.768036,353.695465 435.097229,353.694031 
	C436.263794,353.694000 437.434296,353.617035 438.596130,353.687866 
	C441.210480,353.847351 442.653381,352.794189 442.908173,350.066895 
	C443.263794,346.260376 443.786926,342.469757 444.222473,338.670502 
	C446.382324,319.829956 448.470917,300.980835 450.740356,282.153503 
	C451.299774,277.512665 449.703186,276.090851 445.041626,276.110901 
	C407.711182,276.271698 370.379211,276.100616 333.048889,276.274567 
	C319.709991,276.336731 307.324371,280.344513 296.615997,288.287567 
	C278.687347,301.586304 261.083649,315.323120 242.771378,329.296722 
M592.581421,353.694397 
	C665.558472,353.694397 738.535522,353.694397 811.659973,353.694397 
	C811.389038,350.971405 810.146362,350.560364 809.270813,349.883484 
	C784.770264,330.942749 760.202026,312.089081 735.762024,293.070740 
	C723.260498,283.342560 709.855103,276.177094 693.501221,276.184357 
	C656.028625,276.200958 618.555969,276.173828 581.083374,276.189850 
	C575.298096,276.192322 574.941345,276.644867 575.359009,282.592346 
	C575.428772,283.585876 575.623352,284.569977 575.733154,285.561432 
	C577.910217,305.224060 580.246399,324.871094 582.184509,344.557281 
	C583.079346,353.646545 582.725952,353.681335 592.581421,353.694397 
z"/>
    <path d="
M729.341431,684.462646 
	C689.167969,705.858398 643.614258,690.994873 623.895142,650.341125 
	C605.006653,611.399902 617.753540,563.911377 652.999939,541.911133 
	C691.439087,517.918030 740.284607,531.639221 760.610229,572.213806 
	C780.419922,611.758667 768.051086,661.393555 729.341431,684.462646 
M651.274353,589.291504 
	C653.697021,599.430603 659.976562,605.727844 670.320190,607.122375 
	C679.332092,608.337341 686.788086,604.727600 691.750488,597.209290 
	C697.058655,589.167236 697.250366,580.705872 691.936035,572.345032 
	C686.299805,563.477783 674.606628,559.816467 664.694214,563.923706 
	C655.070862,567.911316 649.035461,578.861084 651.274353,589.291504 
z"/>
    <path d="
M378.371033,544.572266 
	C402.036865,563.311768 411.853790,587.870178 410.298828,617.186829 
	C408.828430,644.908813 396.848328,667.232361 373.477203,682.394043 
	C336.057037,706.669800 287.945557,693.198425 266.320282,652.987671 
	C245.461990,614.203064 257.266907,566.595093 293.777954,542.254089 
	C319.475494,525.122192 351.801819,525.928955 378.371033,544.572266 
M336.569092,589.720764 
	C336.703918,588.231201 336.904480,586.744263 336.963013,585.251709 
	C337.373962,574.770874 330.910370,565.952576 320.631683,562.925415 
	C311.446136,560.220215 300.191864,564.459229 295.327943,572.456299 
	C289.958893,581.283936 291.081512,592.951172 297.863159,600.211853 
	C310.281006,613.506897 331.895447,607.347290 336.569092,589.720764 
z"/>
    <path d="
M459.772644,716.944092 
	C455.323486,701.828857 460.022369,690.149780 473.629852,683.064758 
	C489.726044,674.683960 507.096741,673.638977 524.743591,675.234192 
	C533.723633,676.045898 542.503723,678.017517 550.692200,682.015320 
	C567.450256,690.196899 572.654602,706.196167 563.795410,722.582214 
	C556.167358,736.691345 544.842407,746.989746 530.369202,753.689087 
	C527.049500,755.225708 526.070740,757.050415 526.112549,760.490234 
	C526.404968,784.500977 544.114136,804.281616 567.585388,806.602234 
	C592.085022,809.024536 612.678101,794.034241 617.910767,769.969055 
	C620.084656,759.970947 626.002930,754.874878 633.689758,756.382019 
	C641.369080,757.887695 645.673035,763.496033 644.372009,771.765137 
	C639.946228,799.894958 624.284729,819.289734 597.521362,828.951721 
	C566.963074,839.983887 535.250610,830.701599 514.862183,805.563354 
	C514.450806,805.056091 513.971680,804.603760 513.009155,803.575745 
	C508.727997,808.841614 504.286255,813.692200 499.048370,817.770081 
	C462.061279,846.565552 403.816803,834.722595 385.933502,788.447510 
	C383.765747,782.838196 382.123108,777.070679 381.520782,771.073853 
	C380.727631,763.176941 385.317993,757.335876 393.004181,756.232361 
	C399.691376,755.272339 405.855408,759.989685 407.351685,767.212646 
	C411.996246,789.633301 424.175720,802.103516 445.415955,806.185303 
	C474.088806,811.695435 501.226166,788.185730 499.911163,759.143311 
	C499.754944,755.692871 497.782349,754.751038 495.263550,753.575867 
	C478.925323,745.952942 466.644196,734.319275 459.772644,716.944092 
z"/>
  </g>

  <g fill="#F6C98D">
    <path d="
M651.274353,589.291504 
	C653.697021,599.430603 659.976562,605.727844 670.320190,607.122375 
	C679.332092,608.337341 686.788086,604.727600 691.750488,597.209290 
	C697.058655,589.167236 697.250366,580.705872 691.936035,572.345032 
	C686.299805,563.477783 674.606628,559.816467 664.694214,563.923706 
	C655.070862,567.911316 649.035461,578.861084 651.274353,589.291504 
z"/>
    <path d="
M336.569092,589.720764 
	C336.703918,588.231201 336.904480,586.744263 336.963013,585.251709 
	C337.373962,574.770874 330.910370,565.952576 320.631683,562.925415 
	C311.446136,560.220215 300.191864,564.459229 295.327943,572.456299 
	C289.958893,581.283936 291.081512,592.951172 297.863159,600.211853 
	C310.281006,613.506897 331.895447,607.347290 336.569092,589.720764 
z"/>
  </g>
</svg>
